<?xml version="1.0" standalone="no"?>
<!DOCTYPE svg PUBLIC "-//W3C//DTD SVG 20010904//EN"
 "http://www.w3.org/TR/2001/REC-SVG-20010904/DTD/svg10.dtd">
<svg version="1.0" xmlns="http://www.w3.org/2000/svg"
 width="512px" height="512px" viewBox="0 0 260.000000 512.000000"
 preserveAspectRatio="xMidYMid meet">

<g transform="translate(0.000000,512.000000) scale(0.100000,-0.100000)"
fill="#4EA7B3" stroke="none">
<path d="M1425 5104 c-53 -13 -104 -37 -109 -51 -7 -18 20 -53 41 -53 7 0 26
8 40 18 21 13 49 17 123 17 74 0 102 -4 123 -17 33 -22 51 -23 71 -2 27 26 18
44 -31 66 -36 16 -73 22 -143 24 -52 2 -104 1 -115 -2z"/>
<path d="M1408 5003 c-64 -26 -46 -56 43 -74 l58 -11 6 -47 c6 -38 24 -108 42
-157 6 -15 -117 -169 -132 -166 -8 1 -28 -15 -45 -36 -29 -37 -33 -39 -78 -34
-76 7 -87 -8 -133 -183 -21 -83 -39 -151 -39 -152 0 -1 15 -6 33 -11 23 -6 47
-4 86 10 30 10 62 18 71 18 14 0 23 21 41 92 20 78 33 104 77 163 28 38 50 76
47 83 -3 8 18 44 47 80 28 37 52 68 53 69 1 1 26 -22 57 -51 54 -51 79 -64
212 -111 65 -24 128 -83 157 -148 20 -46 23 -68 24 -182 0 -71 -2 -168 -4
-215 -1 -47 0 -104 4 -128 9 -51 9 -51 -186 -334 -80 -115 -141 -194 -156
-201 -24 -11 -25 -15 -20 -69 11 -121 63 -160 219 -166 54 -3 134 1 177 7 175
26 390 114 471 192 72 70 77 119 25 228 -68 142 -199 239 -357 263 l-76 11
-27 64 c-15 35 -34 67 -42 71 -12 7 -13 23 -4 105 23 201 6 335 -51 422 -38
58 -82 87 -177 120 -93 31 -149 64 -190 110 -35 41 -37 48 -16 65 14 12 14 15
-1 32 -10 10 -25 16 -34 13 -19 -6 -34 35 -46 122 l-6 51 53 11 c30 6 60 15
67 20 24 15 9 45 -28 58 -50 17 -177 15 -222 -4z m22 -27 c0 -11 -19 -15 -25
-6 -3 5 1 10 9 10 9 0 16 -2 16 -4z m210 0 c0 -11 -19 -15 -25 -6 -3 5 1 10 9
10 9 0 16 -2 16 -4z m858 -1574 c39 -28 40 -45 7 -92 -69 -100 -349 -200 -565
-203 -179 -2 -237 54 -147 140 116 111 341 184 557 180 102 -2 119 -5 148 -25z"/>
<path d="M1620 4779 c-9 -17 -8 -23 7 -34 15 -12 21 -11 37 5 16 16 17 22 6
34 -17 22 -37 20 -50 -5z"/>
<path d="M1300 4125 c-25 -7 -58 -18 -73 -24 -21 -8 -40 -8 -73 0 -93 24 -215
-16 -270 -88 -49 -64 -67 -120 -62 -192 8 -109 63 -188 162 -232 60 -26 154
-29 207 -7 97 42 169 148 169 250 0 87 -2 90 -74 83 l-61 -6 57 25 c153 65
241 162 179 196 -26 13 -105 11 -161 -5z"/>
<path d="M1873 3890 c-23 -10 -54 -50 -198 -260 -49 -73 -98 -136 -107 -141
-9 -5 -115 -9 -235 -9 -202 0 -227 2 -335 26 l-116 27 24 20 25 20 -46 44
c-25 25 -53 60 -63 79 l-17 33 -99 -84 c-54 -46 -104 -92 -111 -102 -17 -24
-205 -823 -205 -870 0 -20 34 -162 75 -316 41 -154 75 -287 75 -297 0 -10 -31
-181 -70 -381 -75 -391 -76 -407 -29 -458 25 -27 78 -51 111 -51 36 0 102 37
120 68 10 16 51 204 94 430 l78 402 -29 110 c-15 61 -26 112 -24 113 2 2 17 8
32 15 16 7 84 48 152 91 93 59 126 76 134 67 7 -8 -10 -24 -63 -58 l-73 -47
-32 -199 -33 -200 21 -46 c17 -38 29 -50 67 -67 72 -33 138 -14 185 52 20 27
139 721 139 808 0 39 -6 56 -27 82 -47 55 -120 74 -177 44 -27 -15 -28 -14
-22 7 3 13 27 116 53 229 l48 206 229 8 c126 4 239 11 250 17 22 10 62 64 233
315 62 92 103 163 103 177 0 41 -21 74 -55 91 -37 17 -50 18 -82 5z"/>
<path d="M1266 2149 c-37 -225 -47 -257 -91 -305 -14 -15 -25 -39 -25 -55 0
-51 -13 -55 -182 -52 -154 3 -156 3 -162 -20 -13 -48 -15 -47 159 -47 125 0
165 -3 165 -12 0 -7 -17 -129 -37 -270 l-36 -258 -348 0 -347 0 14 52 c10 39
11 62 3 93 -9 35 0 91 61 412 64 332 70 375 60 413 -6 23 -13 40 -15 39 -2 -2
-94 -398 -205 -879 -111 -481 -219 -950 -241 -1042 -21 -92 -39 -172 -39 -178
0 -11 110 -14 111 -2 0 4 22 97 47 207 l47 200 378 3 c207 1 377 0 377 -2 0
-2 -13 -97 -30 -211 -16 -114 -30 -212 -30 -218 0 -14 102 -1 112 15 4 7 8 22
8 32 0 10 50 370 110 800 61 430 130 919 154 1087 24 169 47 312 50 318 5 7
44 11 102 11 l94 0 0 45 0 45 -113 0 -114 0 -37 -221z m-222 -1106 c-2 -10
-17 -119 -34 -243 -17 -124 -33 -237 -36 -252 l-6 -28 -372 0 -373 0 33 143
c65 285 85 372 89 385 3 9 83 12 354 12 327 0 349 -1 345 -17z"/>
<path d="M880 1021 c0 -24 61 -425 65 -429 3 -3 5 -2 5 3 0 4 12 89 26 188 14
100 23 196 19 214 -6 33 -7 33 -60 33 -30 0 -55 -4 -55 -9z"/>
<path d="M880 2305 l-34 -25 41 0 c35 0 41 3 45 25 6 31 -7 31 -52 0z"/>
<path d="M1420 2224 c0 -9 23 -114 51 -233 27 -119 51 -225 52 -236 2 -18 -5
-19 -118 -20 l-120 0 -3 -32 -3 -33 133 0 133 0 59 -258 c32 -141 61 -263 63
-269 4 -10 -46 -13 -230 -13 l-235 0 -6 -22 c-13 -50 -21 -48 243 -48 l249 0
4 -27 c6 -31 106 -468 114 -495 5 -17 -16 -18 -345 -18 l-351 0 0 -35 0 -35
358 0 359 0 11 -52 c7 -29 29 -124 49 -210 l37 -158 53 0 c38 0 53 4 53 14 0
11 -110 494 -155 681 -8 33 -64 278 -126 545 -61 267 -121 530 -134 585 -13
55 -38 164 -56 243 l-33 142 -53 0 c-42 0 -53 -3 -53 -16z"/>
<path d="M837 1869 c-22 -109 -22 -106 14 -101 l31 5 -7 71 c-12 114 -20 119
-38 25z"/>
<path d="M797 1633 c-2 -5 11 -109 29 -233 18 -124 33 -228 34 -232 0 -5 25
-8 56 -8 l57 0 -6 33 c-2 17 -18 125 -33 239 l-29 208 -52 0 c-28 0 -54 -3
-56 -7z"/>
<path d="M1063 168 c-11 -79 -19 -145 -18 -146 2 -2 22 -6 44 -9 38 -5 41 -4
41 18 -1 37 -36 268 -42 274 -3 3 -14 -59 -25 -137z"/>
</g>
</svg>
