<?xml version="1.0" standalone="no"?>
<!DOCTYPE svg PUBLIC "-//W3C//DTD SVG 20010904//EN"
 "http://www.w3.org/TR/2001/REC-SVG-20010904/DTD/svg10.dtd">
<svg version="1.0" xmlns="http://www.w3.org/2000/svg"
 width="512px" height="512px" viewBox="0 0 512.000000 512.000000"
 preserveAspectRatio="xMidYMid meet">

<g transform="translate(0.000000,512.000000) scale(0.100000,-0.100000)"
fill="#4EA7B3" stroke="none">
<path d="M3005 5005 c-460 -86 -823 -353 -1022 -750 -70 -139 -133 -341 -133
-427 0 -79 87 -131 157 -92 43 23 49 33 68 130 85 412 401 759 805 884 127 39
212 52 350 51 201 -1 362 -40 540 -132 221 -114 389 -284 504 -509 109 -214
150 -428 126 -653 -11 -99 -10 -110 7 -140 12 -21 33 -37 59 -46 36 -13 44
-12 78 4 64 31 71 57 71 300 0 195 -2 217 -27 315 -67 266 -178 468 -357 653
-204 211 -427 335 -716 399 -123 27 -397 34 -510 13z"/>
<path d="M3207 4459 c-32 -19 -47 -65 -47 -146 l0 -78 -50 -18 c-177 -63 -271
-256 -215 -445 27 -91 90 -147 267 -237 284 -144 308 -163 308 -243 0 -39 41
-88 80 -97 45 -10 98 12 116 48 23 43 15 157 -14 214 -44 86 -103 128 -342
247 -192 96 -210 112 -210 182 0 58 21 94 73 121 44 23 170 23 214 0 43 -23
73 -64 73 -99 0 -110 119 -168 191 -92 21 22 24 35 24 97 0 147 -95 266 -250
312 l-40 12 -5 85 c-5 83 -13 105 -50 135 -18 15 -98 16 -123 2z"/>
<path d="M268 3715 c-52 -29 -58 -57 -58 -255 0 -200 6 -227 60 -255 37 -19
63 -19 100 0 49 25 60 60 60 190 l0 115 234 0 233 0 118 -302 c65 -167 168
-433 230 -593 62 -159 129 -330 148 -380 20 -49 115 -295 212 -545 97 -250
183 -465 191 -477 8 -12 23 -27 34 -33 27 -14 2434 -14 2461 0 10 6 25 23 33
38 12 23 242 624 505 1321 45 117 81 223 81 234 0 38 -39 86 -78 96 -20 5
-140 24 -267 41 -270 36 -308 41 -1165 160 -360 50 -736 102 -835 115 -99 14
-261 36 -360 50 -515 71 -513 71 -550 51 -40 -22 -60 -64 -52 -112 12 -71 37
-83 227 -108 63 -8 408 -56 765 -105 358 -50 686 -95 730 -101 288 -39 610
-83 725 -100 74 -10 239 -33 367 -51 l231 -32 -13 -36 c-20 -53 -179 -471
-360 -946 -43 -110 -86 -226 -97 -258 l-20 -57 -1100 2 -1101 3 -42 110 c-67
175 -161 418 -340 875 -92 234 -186 477 -210 540 -24 63 -89 232 -145 375 -56
143 -113 290 -127 326 -13 37 -36 78 -50 90 l-25 24 -361 2 c-307 2 -366 0
-389 -12z"/>
<path d="M2061 2631 c-27 -25 -31 -36 -31 -78 0 -41 5 -54 28 -76 l28 -27 764
0 c421 0 777 0 792 0 14 0 40 12 57 26 27 22 31 32 31 76 0 43 -4 54 -31 79
l-31 29 -788 0 -788 0 -31 -29z"/>
<path d="M2104 2233 c-30 -6 -72 -53 -74 -83 -4 -54 1 -73 29 -101 l29 -29
997 0 c1087 0 1043 -2 1065 56 27 70 -2 135 -68 154 -36 9 -1929 13 -1978 3z"/>
<path d="M2073 1791 c-21 -13 -35 -32 -42 -55 -14 -52 3 -102 42 -127 31 -19
55 -19 1030 -17 l999 3 29 33 c40 45 40 99 0 144 l-29 33 -999 3 c-975 2 -999
2 -1030 -17z"/>
<path d="M2323 1035 c-213 -58 -353 -239 -353 -458 0 -136 37 -233 123 -325
96 -101 213 -152 348 -152 238 0 431 166 470 406 53 326 -268 615 -588 529z
m208 -220 c53 -18 111 -71 142 -128 17 -33 22 -59 22 -118 -1 -68 -4 -80 -33
-126 -53 -83 -128 -125 -222 -125 -68 0 -115 19 -168 67 -116 104 -115 279 1
382 26 22 61 45 79 50 49 16 129 15 179 -2z"/>
<path d="M3544 1031 c-114 -32 -203 -98 -266 -195 -180 -279 -31 -650 291
-726 33 -8 88 -11 142 -8 74 5 100 11 161 40 252 120 347 404 220 657 -33 67
-121 157 -188 193 -105 56 -246 72 -360 39z m260 -235 c138 -81 167 -269 62
-393 -15 -18 -52 -44 -82 -59 -106 -52 -229 -25 -306 66 -107 124 -63 326 87
397 69 33 172 29 239 -11z"/>
</g>
</svg>
