<?xml version="1.0" standalone="no"?>
<!DOCTYPE svg PUBLIC "-//W3C//DTD SVG 20010904//EN"
 "http://www.w3.org/TR/2001/REC-SVG-20010904/DTD/svg10.dtd">
<svg version="1.0" xmlns="http://www.w3.org/2000/svg"
 width="512px" height="512px" viewBox="0 0 512.000000 512.000000"
 preserveAspectRatio="xMidYMid meet">

<g transform="translate(0.000000,512.000000) scale(0.100000,-0.100000)"
fill="#4EA7B3" stroke="none">
<path d="M1848 5017 c-154 -65 -234 -186 -245 -372 -4 -65 -10 -93 -21 -102
-11 -9 -59 -13 -154 -13 -103 0 -148 -4 -176 -16 -74 -30 -129 -106 -134 -183
l-3 -41 -336 0 c-278 0 -343 -3 -381 -16 -50 -17 -108 -67 -135 -117 -17 -30
-18 -145 -21 -1958 l-2 -1925 27 -54 c35 -68 94 -115 165 -129 37 -8 510 -11
1598 -9 1485 3 1546 4 1580 22 49 26 98 74 123 121 l22 40 3 1895 c3 2084 6
1955 -59 2033 -17 21 -50 48 -72 60 -41 21 -54 22 -397 27 l-355 5 -6 46 c-8
56 -28 96 -66 130 -59 55 -86 62 -247 66 -89 1 -154 7 -160 13 -6 6 -14 59
-17 118 -7 118 -20 157 -79 232 -48 61 -75 84 -140 116 -47 24 -70 28 -155 31
-88 3 -107 1 -157 -20z m257 -121 c108 -50 154 -126 155 -251 0 -103 12 -143
53 -183 46 -44 81 -52 240 -52 l139 0 29 -31 29 -31 0 -144 0 -144 -755 0
-755 0 0 139 c0 133 1 141 24 168 24 28 24 28 183 33 179 6 207 15 247 78 20
31 25 55 29 140 7 119 26 169 83 223 61 58 109 78 184 78 48 1 78 -5 115 -23z
m-993 -830 c2 -75 7 -98 22 -115 l19 -21 844 0 c990 0 883 -16 883 135 l0 95
331 0 c365 0 367 0 405 -64 18 -30 19 -87 19 -1911 0 -2059 4 -1925 -60 -1965
-32 -20 -48 -20 -1574 -20 -1703 0 -1580 -5 -1621 63 -20 31 -20 65 -20 1915
0 2080 -5 1921 63 1962 30 19 52 20 359 20 l326 0 4 -94z"/>
<path d="M1948 4861 c-48 -16 -85 -43 -112 -85 -24 -36 -27 -49 -24 -107 3
-54 9 -73 32 -104 84 -110 256 -93 316 30 43 90 10 203 -72 245 -44 24 -104
32 -140 21z m86 -142 c17 -13 26 -30 26 -49 0 -29 -38 -70 -65 -70 -26 0 -65
41 -65 68 0 32 8 45 35 60 28 16 39 15 69 -9z"/>
<path d="M587 3512 c-15 -17 -17 -55 -17 -338 0 -273 2 -323 16 -342 l15 -22
369 0 369 0 15 22 c14 19 16 68 16 331 0 304 -3 339 -34 359 -6 4 -173 8 -372
8 -337 0 -362 -1 -377 -18z m653 -342 l0 -240 -275 0 -275 0 -1 73 c-1 70 -1
219 1 345 l0 62 275 0 275 0 0 -240z"/>
<path d="M1610 3390 c-27 -27 -26 -75 2 -94 20 -14 119 -16 869 -16 466 0 855
3 864 6 27 11 37 51 20 83 -8 16 -22 31 -30 35 -9 3 -397 6 -861 6 -831 0
-844 0 -864 -20z"/>
<path d="M2062 3034 c-28 -19 -29 -67 -2 -94 20 -20 30 -20 651 -18 611 3 631
4 645 22 18 26 18 56 -2 84 l-15 22 -627 0 c-552 0 -630 -2 -650 -16z"/>
<path d="M590 2390 c-19 -19 -20 -33 -20 -347 0 -181 4 -333 8 -339 20 -31 54
-34 397 -34 l346 0 24 25 25 24 0 311 c0 326 -4 358 -45 374 -9 3 -174 6 -366
6 -336 0 -350 -1 -369 -20z m650 -345 l0 -245 -275 0 -275 0 -1 38 c0 32 0
386 1 435 0 16 20 17 275 17 l275 0 0 -245z"/>
<path d="M1607 2262 c-34 -37 -14 -95 36 -107 12 -3 399 -4 860 -3 l839 3 19
24 c24 30 24 42 -2 75 l-20 26 -858 0 c-818 0 -859 -1 -874 -18z"/>
<path d="M2080 1923 c-41 -15 -54 -78 -22 -107 17 -15 73 -16 652 -14 l634 3
15 26 c19 34 8 73 -24 87 -19 9 -189 12 -633 11 -334 0 -614 -3 -622 -6z"/>
<path d="M580 1251 c-6 -13 -10 -140 -10 -345 0 -313 1 -327 20 -346 19 -19
33 -20 379 -20 l360 0 20 26 c20 26 21 38 21 336 0 257 -3 314 -15 338 l-16
30 -374 0 c-360 0 -375 -1 -385 -19z m660 -331 l0 -240 -275 0 -275 0 0 88
c-1 181 -1 328 -1 360 l1 32 275 0 275 0 0 -240z"/>
<path d="M1607 1132 c-23 -25 -21 -68 3 -92 20 -20 33 -20 870 -20 l851 0 24
25 c30 29 31 45 4 79 l-20 26 -858 0 c-818 0 -859 -1 -874 -18z"/>
<path d="M2057 782 c-25 -27 -22 -78 5 -96 20 -14 97 -16 635 -16 357 0 622 4
636 9 33 13 45 63 23 96 l-16 25 -634 0 c-600 0 -634 -1 -649 -18z"/>
<path d="M4237 4310 c-98 -18 -200 -106 -234 -203 -17 -49 -18 -135 -18 -1632
l0 -1580 121 -225 c67 -124 154 -286 194 -360 40 -74 82 -145 93 -157 25 -27
58 -29 85 -5 11 9 106 181 211 381 l191 363 0 1584 c0 1561 0 1584 -20 1637
-29 76 -79 130 -158 169 l-66 33 -176 2 c-96 1 -196 -2 -223 -7z m423 -140
c22 -11 52 -39 67 -62 26 -39 28 -50 31 -165 l4 -123 -327 0 -327 0 4 129 c3
127 4 130 33 167 56 69 76 74 288 74 169 0 192 -2 227 -20z m-290 -1830 l0
-1360 -130 0 -130 0 0 1360 0 1360 130 0 130 0 0 -1360z m390 0 l0 -1360 -135
0 -135 0 0 1360 0 1360 135 0 135 0 0 -1360z m-40 -1496 c0 -6 -85 -164 -218
-407 l-64 -119 -37 69 c-21 37 -68 127 -106 198 -37 72 -83 158 -101 193 -19
34 -34 65 -34 67 0 3 126 5 280 5 154 0 280 -3 280 -6z"/>
</g>
</svg>
