<?xml version="1.0" standalone="no"?>
<!DOCTYPE svg PUBLIC "-//W3C//DTD SVG 20010904//EN"
 "http://www.w3.org/TR/2001/REC-SVG-20010904/DTD/svg10.dtd">
<svg version="1.0" xmlns="http://www.w3.org/2000/svg"
 width="512px" height="512px" viewBox="0 0 499.000000 512.000000"
 preserveAspectRatio="xMidYMid meet">

<g transform="translate(0.000000,512.000000) scale(0.100000,-0.100000)"
fill="#4EA7B3" stroke="none">
<path d="M3702 5104 c-52 -36 -52 -40 -52 -509 l0 -435 615 0 615 0 0 446 0
446 -34 34 -34 34 -544 0 c-476 0 -546 -2 -566 -16z"/>
<path d="M3350 4242 c-9 -4 -25 -14 -36 -22 -27 -20 -254 -298 -254 -311 0 -6
-29 -40 -65 -76 l-65 -65 6 -77 c16 -188 -87 -365 -261 -451 -68 -34 -73 -35
-190 -35 -117 0 -122 1 -195 36 -73 35 -152 101 -195 162 l-20 29 -85 -12
c-49 -6 -95 -18 -109 -29 -56 -40 -57 -43 -171 -476 -23 -88 -57 -216 -75
-285 -19 -69 -48 -179 -65 -245 -18 -66 -43 -160 -58 -210 -14 -50 -26 -116
-26 -150 -1 -64 -2 -60 264 -666 43 -97 81 -185 84 -196 5 -14 -48 -137 -170
-399 -195 -420 -224 -490 -224 -537 0 -56 20 -107 58 -149 87 -97 227 -106
321 -20 43 38 42 36 349 702 149 323 152 331 152 385 0 41 -15 85 -80 235 -92
212 -105 217 130 -45 84 -93 168 -186 186 -206 l33 -37 14 -448 c15 -501 16
-506 89 -570 48 -42 97 -57 172 -52 83 5 144 46 181 123 l27 55 -15 512 c-11
346 -20 525 -28 551 -7 21 -38 66 -68 101 -80 89 -424 470 -430 476 -3 3 -20
21 -38 40 l-32 35 30 115 c16 63 57 223 90 355 33 132 65 257 70 279 l10 38
37 -78 c79 -172 107 -218 141 -238 58 -34 99 -25 317 63 111 44 204 81 208 81
4 0 4 -44 1 -98 -7 -87 -5 -99 12 -121 26 -31 76 -33 105 -3 19 18 23 41 33
156 10 121 13 138 35 161 32 34 41 132 15 171 -13 21 -16 43 -13 107 2 53 8
82 16 85 24 8 73 55 89 85 25 50 21 129 -10 176 -15 22 -35 45 -46 50 -16 9
-19 6 -25 -21 -3 -17 -6 -46 -6 -64 0 -62 -66 -96 -115 -58 -17 13 -20 25 -18
89 1 41 -1 75 -5 75 -23 0 -72 -44 -91 -82 -38 -80 -23 -169 38 -221 32 -27
32 -28 26 -90 l-7 -63 -191 -77 c-106 -42 -198 -78 -206 -79 -9 -2 -50 74
-121 225 -59 125 -116 241 -128 256 l-21 29 52 7 c82 11 109 30 199 138 46 56
181 218 299 360 273 330 272 328 267 393 -5 58 -29 97 -75 119 -32 15 -96 19
-123 7z"/>
<path d="M2854 4100 c-28 -5 -90 -22 -136 -38 -79 -26 -88 -28 -129 -15 -159
47 -353 -26 -449 -169 -39 -58 -70 -161 -70 -230 0 -55 29 -149 63 -207 136
-227 462 -263 641 -71 81 87 123 203 113 314 -8 90 -14 99 -51 91 -17 -3 -62
-8 -101 -11 l-70 -5 60 24 c190 73 345 192 345 264 0 51 -96 74 -216 53z"/>
<path d="M3650 3925 c0 -146 3 -192 15 -215 32 -63 7 -60 603 -60 l544 0 34
34 34 34 0 196 0 196 -615 0 -615 0 0 -185z m385 65 c4 -6 -1 -22 -10 -36 -9
-13 -13 -29 -10 -34 11 -18 31 -11 45 15 18 33 26 32 46 -7 40 -77 -21 -178
-107 -178 -133 0 -178 162 -64 231 33 21 90 25 100 9z m539 4 c14 -6 14 -10
-5 -40 -19 -32 -19 -34 -3 -41 12 -4 24 2 39 21 l22 28 17 -23 c9 -14 16 -43
16 -71 0 -39 -5 -52 -34 -82 -30 -32 -39 -36 -84 -36 -118 0 -173 128 -89 207
43 41 81 52 121 37z"/>
<path d="M3860 3565 c0 -35 0 -35 47 -35 l46 0 -6 -247 c-19 -713 -97 -1245
-321 -2165 -101 -416 -122 -572 -95 -700 27 -125 86 -199 211 -263 42 -22 79
-47 81 -56 15 -55 150 -82 422 -83 131 -1 221 4 260 12 103 23 240 71 291 104
27 17 66 37 88 44 22 8 46 20 53 26 22 18 45 68 39 84 -5 12 -11 10 -33 -11
-40 -37 -85 -48 -172 -43 -84 5 -145 30 -179 73 -11 14 -23 25 -26 25 -12 0
-5 -62 10 -85 14 -22 14 -24 -4 -34 -149 -80 -416 -107 -587 -60 -44 12 -96
22 -115 23 -45 2 -133 45 -187 91 -23 19 -54 61 -70 93 -26 54 -28 65 -28 187
0 140 9 192 85 505 240 985 316 1492 337 2242 l6 237 46 3 c44 3 46 5 49 36
l3 32 -125 0 -126 0 0 -35z"/>
<path d="M4424 3586 c-3 -8 -4 -23 -2 -33 3 -16 17 -18 126 -21 l122 -3 0 36
0 35 -120 0 c-96 0 -122 -3 -126 -14z"/>
<path d="M250 750 c0 -25 4 -30 25 -30 24 0 25 -2 25 -65 l0 -65 -150 0 -151
0 3 -107 3 -108 565 0 565 0 3 108 3 107 -151 0 -150 0 0 65 c0 63 1 65 25 65
21 0 25 5 25 30 l0 30 -320 0 -320 0 0 -30z m528 -107 l3 -53 -210 0 -211 0 0
48 c0 27 3 51 6 55 3 3 97 5 208 4 l201 -2 3 -52z"/>
<path d="M4655 515 c-83 -31 -110 -104 -60 -164 36 -42 119 -71 203 -71 193 1
254 141 97 223 -52 27 -182 33 -240 12z m115 -50 c0 -8 -9 -15 -20 -15 -20 0
-26 11 -13 23 12 13 33 7 33 -8z m90 -21 c0 -8 -7 -14 -15 -14 -15 0 -21 21
-9 33 10 9 24 -2 24 -19z m-192 -11 c-4 -22 -22 -20 -26 1 -2 10 3 16 13 16
10 0 15 -7 13 -17z m262 -48 c0 -8 -9 -15 -20 -15 -20 0 -26 11 -13 23 12 13
33 7 33 -8z m-190 -19 c0 -18 -16 -29 -30 -21 -13 8 -1 35 16 35 8 0 14 -6 14
-14z m110 -31 c0 -8 -7 -15 -15 -15 -8 0 -15 7 -15 15 0 8 7 15 15 15 8 0 15
-7 15 -15z"/>
<path d="M0 180 l0 -160 570 0 570 0 0 160 0 160 -570 0 -570 0 0 -160z"/>
</g>
</svg>
