<?xml version="1.0" standalone="no"?>
<!DOCTYPE svg PUBLIC "-//W3C//DTD SVG 20010904//EN"
 "http://www.w3.org/TR/2001/REC-SVG-20010904/DTD/svg10.dtd">
<svg version="1.0" xmlns="http://www.w3.org/2000/svg"
 width="512px" height="512px" viewBox="0 0 512.000000 512.000000"
 preserveAspectRatio="xMidYMid meet">

<g transform="translate(0.000000,512.000000) scale(0.100000,-0.100000)"
fill="#4EA7B3" stroke="none">
<path d="M154 4891 c-70 -43 -64 129 -64 -1874 0 -1987 -4 -1849 60 -1882 23
-12 67 -15 205 -15 l175 0 0 -103 c0 -180 42 -265 163 -326 l67 -34 0 -107 c0
-125 15 -179 66 -238 19 -23 60 -53 92 -69 53 -26 66 -28 177 -28 111 0 124 2
177 28 32 16 73 46 92 69 51 59 66 113 66 238 l0 107 67 34 c52 26 76 46 104
87 45 64 59 122 59 247 l0 95 169 0 169 0 4 -132 c3 -113 7 -139 25 -174 28
-53 105 -121 153 -135 l38 -11 4 -122 c5 -140 18 -180 81 -245 69 -71 111 -85
257 -85 144 0 174 9 247 77 70 64 86 109 91 255 4 97 7 122 19 122 45 0 141
79 176 145 18 34 22 61 25 172 l4 133 168 0 168 0 4 -124 c4 -114 6 -128 34
-182 33 -63 102 -125 158 -141 l31 -9 5 -124 c6 -135 15 -165 70 -232 17 -20
56 -49 88 -65 53 -26 66 -28 177 -28 111 0 124 2 177 28 32 16 73 46 92 69 51
59 66 113 66 238 l0 107 67 34 c121 61 163 146 163 326 l0 103 175 0 c138 0
182 3 205 15 64 33 60 -105 60 1877 0 1422 -3 1808 -13 1828 -7 13 -28 35 -46
47 l-34 23 -2376 0 c-2321 0 -2377 -1 -2407 -19z m4636 -1876 l0 -1655 -2230
0 -2230 0 0 1655 0 1655 2230 0 2230 0 0 -1655z m-3370 -1987 c0 -138 24 -128
-323 -128 -256 0 -293 2 -309 17 -15 13 -18 32 -18 110 l0 93 325 0 325 0 0
-92z m1460 -6 c0 -63 -4 -102 -12 -110 -17 -17 -599 -17 -616 0 -8 8 -12 47
-12 110 l0 98 320 0 320 0 0 -98z m1470 6 c0 -138 24 -128 -323 -128 -256 0
-293 2 -309 17 -15 13 -18 32 -18 110 l0 93 325 0 325 0 0 -92z m-3160 -455
c0 -110 -9 -123 -92 -123 -94 0 -98 4 -98 115 l0 95 95 0 95 0 0 -87z m1470
-2 c0 -82 -2 -91 -22 -105 -30 -21 -126 -21 -156 0 -20 14 -22 23 -22 105 l0
89 100 0 100 0 0 -89z m1460 -6 c0 -110 -4 -115 -96 -115 -85 0 -94 12 -94
122 l0 88 95 0 95 0 0 -95z"/>
<path d="M1018 4587 c-15 -12 -32 -35 -38 -50 -7 -19 -10 -397 -10 -1129 0
-1207 -3 -1144 59 -1181 27 -16 133 -17 1531 -17 1492 0 1503 0 1535 20 18 11
38 35 44 52 8 22 11 364 11 1130 0 1183 2 1145 -51 1182 -21 15 -154 16 -1539
16 l-1515 0 -27 -23z m2892 -637 l0 -420 -212 0 c-151 0 -220 -4 -238 -13 -20
-10 -315 -342 -366 -412 -14 -19 -14 -19 -33 0 -17 18 -204 256 -584 743 -66
84 -130 160 -143 169 -31 20 -96 20 -126 1 -13 -9 -136 -122 -275 -252 l-252
-236 -236 0 -235 0 0 420 0 420 1350 0 1350 0 0 -420z m-1610 -268 c19 -26 87
-112 150 -193 63 -80 209 -266 325 -414 115 -148 223 -277 240 -287 38 -23 72
-23 111 1 17 11 124 128 238 260 l207 241 169 0 170 0 0 -420 0 -420 -1350 0
-1350 0 0 420 0 420 271 0 c225 0 276 3 302 16 18 8 129 107 247 219 118 112
220 204 225 204 6 0 26 -21 45 -47z"/>
<path d="M1153 2099 c-76 -30 -154 -104 -188 -181 -106 -235 77 -494 334 -476
84 6 147 34 209 92 143 133 143 359 0 492 -68 63 -125 87 -223 91 -63 2 -91
-1 -132 -18z m174 -236 c14 -9 32 -32 39 -50 12 -28 12 -38 0 -67 -17 -41 -51
-66 -91 -66 -40 0 -74 25 -91 66 -36 86 64 168 143 117z"/>
<path d="M2029 2105 c-201 -64 -294 -289 -200 -480 34 -68 81 -114 161 -156
38 -20 59 -24 140 -24 84 0 102 3 151 28 67 32 132 100 162 165 31 71 35 191
8 263 -48 126 -165 210 -301 216 -48 2 -92 -3 -121 -12z m151 -240 c60 -31 69
-104 19 -154 -41 -41 -86 -42 -131 -2 -27 24 -33 36 -33 71 0 35 6 47 33 71
36 32 69 36 112 14z"/>
<path d="M2900 2111 c-108 -35 -194 -114 -231 -211 -27 -71 -23 -191 8 -262
30 -65 95 -133 162 -165 49 -25 67 -28 151 -28 81 0 102 4 140 24 81 42 127
88 162 159 30 59 33 76 33 152 0 71 -4 94 -26 141 -56 119 -165 190 -299 196
-41 1 -86 -1 -100 -6z m156 -265 c25 -24 34 -43 34 -66 0 -23 -9 -41 -34 -66
-46 -46 -96 -47 -137 -3 -47 50 -38 123 19 153 45 25 80 20 118 -18z"/>
<path d="M3743 2106 c-236 -77 -315 -371 -150 -552 66 -73 137 -106 236 -112
109 -6 176 21 256 102 74 75 99 138 99 241 -1 130 -83 254 -202 307 -59 27
-179 34 -239 14z m164 -248 c9 -7 22 -28 30 -45 25 -61 -25 -133 -92 -133 -40
0 -74 25 -91 66 -28 67 27 140 99 131 21 -3 45 -11 54 -19z"/>
</g>
</svg>
