<?xml version="1.0" standalone="no"?>
<!DOCTYPE svg PUBLIC "-//W3C//DTD SVG 20010904//EN"
 "http://www.w3.org/TR/2001/REC-SVG-20010904/DTD/svg10.dtd">
<svg version="1.0" xmlns="http://www.w3.org/2000/svg"
 width="145px" height="42px" viewBox="0 0 608.000000 160.000000"
 preserveAspectRatio="xMidYMid meet">

<g transform="translate(0.000000,160.000000) scale(0.100000,-0.100000)"
fill="#4EA7B3" stroke="none">
<path d="M173 1560 c-12 -5 -27 -18 -33 -29 -7 -15 -11 -199 -11 -602 0 -643
-2 -622 63 -634 18 -3 242 -4 498 -3 l465 3 -42 22 c-22 12 -70 45 -106 73
l-66 50 -333 2 -333 3 0 485 0 485 365 5 365 5 45 31 c62 43 95 59 173 84 37
12 67 24 67 26 0 8 -1096 2 -1117 -6z"/>
<path d="M1576 1562 c5 -5 34 -16 64 -25 105 -32 216 -106 298 -199 l42 -49 0
115 0 114 -31 26 c-30 26 -32 26 -207 26 -97 0 -172 -4 -166 -8z"/>
<path d="M1235 1493 c-143 -50 -237 -121 -319 -241 -113 -165 -138 -397 -63
-577 76 -185 242 -326 435 -371 100 -23 245 -15 346 20 l79 27 147 -146 c109
-107 153 -145 171 -145 41 1 107 37 158 88 58 58 83 102 84 149 1 31 -13 48
-145 181 l-146 147 18 41 c34 78 53 191 47 278 -18 247 -165 445 -402 541 -62
25 -85 29 -200 32 -121 3 -135 2 -210 -24z m328 -173 c200 -62 329 -270 297
-480 -35 -221 -237 -383 -459 -367 -327 22 -515 377 -348 656 56 93 167 177
264 200 69 16 177 12 246 -9z"/>
<path d="M1302 1140 l-113 -69 53 -34 c29 -18 83 -53 121 -76 l67 -43 120 74
c66 40 120 75 120 78 0 9 -227 140 -242 139 -7 0 -64 -31 -126 -69z"/>
<path d="M1575 961 l-120 -77 -3 -138 -3 -138 33 21 c18 12 75 47 125 79 l93
57 0 138 c0 75 -1 137 -2 136 -2 0 -57 -35 -123 -78z"/>
<path d="M1160 897 c0 -115 2 -134 18 -143 9 -6 65 -41 125 -77 l107 -67 0
138 -1 137 -119 73 c-65 39 -121 72 -124 72 -3 0 -6 -60 -6 -133z"/>
<path d="M350 1190 l0 -110 105 0 105 0 0 110 0 110 -105 0 -105 0 0 -110z"/>
<path d="M610 1190 l0 -111 86 3 85 3 25 60 c16 40 23 75 22 105 l-3 45 -107
3 -108 3 0 -111z"/>
<path d="M4802 1259 c-59 -30 -92 -87 -92 -163 0 -63 14 -98 57 -137 92 -85
259 -50 302 64 20 51 13 126 -14 173 -46 79 -162 108 -253 63z m132 -51 c76
-34 84 -154 15 -213 -39 -32 -69 -32 -108 0 -68 58 -62 171 11 212 29 16 50
16 82 1z"/>
<path d="M2790 1095 l0 -175 40 0 40 0 0 175 0 175 -40 0 -40 0 0 -175z"/>
<path d="M2940 1095 l0 -175 40 0 39 0 3 110 3 109 74 -109 75 -110 43 0 43 0
0 175 -1 175 -45 0 -44 0 0 -107 0 -107 -72 107 -73 107 -42 0 -43 0 0 -175z"/>
<path d="M3300 1264 c0 -3 28 -82 62 -175 l62 -170 44 3 45 3 33 90 c18 50 46
127 63 173 l30 82 -43 0 -43 0 -38 -107 c-21 -60 -41 -111 -44 -115 -4 -4 -24
44 -45 107 l-37 115 -45 0 c-24 0 -44 -3 -44 -6z"/>
<path d="M3680 1095 l0 -175 125 0 125 0 0 30 0 30 -85 0 -85 0 0 115 0 115
80 0 80 0 0 30 0 30 -120 0 -120 0 0 -175z"/>
<path d="M3990 1095 l0 -175 40 0 39 0 3 110 3 109 74 -109 75 -110 43 0 43 0
0 175 0 175 -45 0 -45 0 0 -107 0 -107 -72 107 -73 107 -42 0 -43 0 0 -175z"/>
<path d="M4350 1240 l0 -30 60 0 60 0 0 -145 0 -145 46 0 45 0 -3 145 -3 145
58 0 c57 0 57 0 57 30 l0 30 -160 0 -160 0 0 -30z"/>
<path d="M5140 1095 l0 -175 40 0 40 0 0 70 c0 55 3 70 15 70 8 0 30 -31 50
-70 l35 -70 45 0 c25 0 45 3 45 6 0 4 -17 37 -39 74 l-39 68 25 18 c30 23 41
82 23 124 -19 46 -56 60 -155 60 l-85 0 0 -175z m152 98 c10 -9 18 -21 18 -26
0 -21 -34 -47 -62 -47 -27 0 -28 2 -28 45 0 42 2 45 27 45 14 0 35 -7 45 -17z"/>
<path d="M5430 1265 c0 -2 27 -48 60 -102 59 -95 60 -98 60 -170 l0 -73 40 0
40 0 0 76 c0 75 1 77 60 175 l59 99 -44 0 c-44 0 -45 -1 -77 -60 -18 -33 -35
-60 -38 -60 -3 0 -20 27 -38 60 -33 59 -34 60 -78 60 -24 0 -44 -2 -44 -5z"/>
<path d="M3800 1125 c-10 -12 -10 -21 -1 -41 9 -20 17 -25 43 -22 38 4 58 30
42 56 -15 23 -67 28 -84 7z"/>
<path d="M350 930 l0 -110 105 0 105 0 0 110 0 110 -105 0 -105 0 0 -110z"/>
<path d="M610 930 l0 -110 75 0 75 0 0 73 c0 39 3 89 6 110 l7 37 -82 0 -81 0
0 -110z"/>
<path d="M350 670 l0 -110 105 0 105 0 0 110 0 110 -105 0 -105 0 0 -110z"/>
<path d="M610 670 l0 -110 105 0 c123 0 129 5 100 79 -10 25 -23 66 -30 91
l-12 45 -82 3 -81 3 0 -111z"/>
<path d="M3979 627 c-66 -35 -91 -84 -87 -172 2 -55 8 -77 27 -104 49 -68 171
-92 258 -50 l43 21 0 79 0 79 -70 0 -70 0 0 -30 c0 -27 3 -30 30 -30 27 0 30
-3 30 -30 0 -58 -88 -64 -134 -10 -50 60 -41 155 17 190 43 27 69 25 106 -6
32 -27 58 -26 81 2 10 12 9 18 -6 36 -47 52 -151 64 -225 25z"/>
<path d="M2380 465 l0 -175 40 0 39 0 3 102 3 103 34 -53 c45 -71 70 -71 114
1 l32 52 3 -102 3 -103 39 0 40 0 0 175 0 175 -40 0 c-30 0 -42 -5 -51 -22 -7
-12 -28 -47 -47 -77 l-34 -54 -50 77 c-47 74 -50 76 -88 76 l-40 0 0 -175z"/>
<path d="M2845 478 c-33 -89 -62 -168 -63 -175 -3 -11 7 -13 39 -11 40 3 43 5
57 46 l14 43 56 -3 55 -3 15 -42 c13 -42 15 -43 59 -43 32 0 44 4 41 13 -2 8
-30 86 -63 175 l-60 162 -45 0 -45 0 -60 -162z m120 16 c21 -50 20 -54 -19
-54 l-35 0 16 45 c8 25 17 45 19 45 2 0 11 -16 19 -36z"/>
<path d="M3160 465 l0 -175 40 0 39 0 3 110 3 109 74 -109 75 -110 43 0 43 0
0 175 0 175 -45 0 -45 0 0 -107 0 -107 -72 107 -73 107 -42 0 -43 0 0 -175z"/>
<path d="M3585 478 c-33 -89 -62 -168 -63 -175 -3 -11 7 -13 39 -11 40 3 43 5
57 46 l14 42 57 0 57 0 12 -45 12 -45 46 0 c33 0 45 4 42 13 -2 8 -30 86 -63
175 l-60 162 -45 0 -45 0 -60 -162z m118 30 c3 -13 9 -33 12 -45 7 -21 4 -23
-28 -23 l-36 0 16 45 c16 50 28 57 36 23z"/>
<path d="M4290 465 l0 -175 125 0 125 0 0 30 0 30 -85 0 -85 0 0 115 0 115 80
0 80 0 0 30 0 30 -120 0 -120 0 0 -175z"/>
<path d="M4600 465 l0 -175 40 0 39 0 3 102 3 103 34 -53 c45 -70 68 -70 116
0 l35 53 0 -103 0 -102 40 0 40 0 0 175 0 175 -40 0 c-30 0 -42 -5 -51 -22 -7
-12 -28 -47 -47 -77 l-34 -54 -49 77 c-47 74 -50 76 -89 76 l-40 0 0 -175z"/>
<path d="M5030 465 l0 -175 125 0 125 0 0 30 0 30 -85 0 -85 0 0 115 0 115 80
0 80 0 0 30 0 30 -120 0 -120 0 0 -175z"/>
<path d="M5340 465 l0 -175 40 0 39 0 3 110 3 109 74 -109 75 -110 43 0 43 0
0 175 0 175 -45 0 -45 0 0 -107 0 -107 -72 107 -73 107 -42 0 -43 0 0 -175z"/>
<path d="M5700 610 l0 -30 60 0 60 0 0 -145 0 -145 45 0 45 0 0 145 0 145 55
0 c54 0 55 0 55 30 l0 30 -160 0 -160 0 0 -30z"/>
<path d="M4410 495 c-10 -12 -10 -21 -1 -41 9 -20 17 -25 43 -22 38 4 58 30
42 56 -15 23 -67 28 -84 7z"/>
<path d="M5150 495 c-10 -12 -10 -21 -1 -41 9 -20 17 -25 43 -22 38 4 58 30
42 56 -15 23 -67 28 -84 7z"/>
<path d="M827 227 c-8 -13 -21 -42 -28 -65 l-12 -42 -74 0 -73 0 0 -50 0 -50
415 0 415 0 0 50 0 49 -76 3 -77 3 -12 40 c-27 91 -8 85 -249 85 -213 0 -214
0 -229 -23z"/>
</g>
</svg>
