<?xml version="1.0" standalone="no"?>
<!DOCTYPE svg PUBLIC "-//W3C//DTD SVG 20010904//EN"
 "http://www.w3.org/TR/2001/REC-SVG-20010904/DTD/svg10.dtd">
<svg version="1.0" xmlns="http://www.w3.org/2000/svg"
 width="512px" height="512px" viewBox="0 0 752.000000 980.000000"
 preserveAspectRatio="xMidYMid meet">

<g transform="translate(0.000000,980.000000) scale(0.100000,-0.100000)"
fill="#4EA7B3" stroke="none">
<path d="M2929 9786 c-332 -70 -618 -370 -660 -693 -6 -49 -13 -98 -15 -110
l-4 -23 -228 0 c-363 0 -465 -18 -526 -91 -45 -53 -58 -96 -64 -206 l-5 -102
-71 -5 c-39 -4 -231 -7 -426 -9 l-355 -2 -108 -54 c-199 -99 -306 -204 -407
-403 l-60 -116 0 -3291 0 -3291 41 -83 c94 -186 233 -334 395 -416 164 -83
222 -86 2001 -86 826 0 1505 3 1509 7 4 5 -25 78 -65 164 -40 86 -89 206 -108
265 l-36 109 -1426 0 c-784 0 -1467 5 -1517 9 -57 6 -106 17 -130 29 -52 27
-102 80 -115 123 -22 71 -30 1130 -27 3682 l3 2622 24 45 c13 24 48 68 78 97
l54 53 373 0 373 0 5 -128 c6 -156 30 -223 97 -268 39 -25 50 -27 218 -36 271
-14 2806 -5 2863 11 113 31 147 90 163 280 l12 136 360 0 361 0 56 -34 c68
-41 83 -71 99 -191 9 -60 14 -649 18 -2000 l6 -1915 85 -7 c135 -11 258 -28
355 -49 49 -10 90 -19 92 -19 8 0 2 3759 -7 3923 -12 223 -27 304 -75 402 -91
184 -309 364 -505 416 -30 8 -182 14 -445 18 l-400 6 -6 85 c-8 120 -29 176
-94 247 l-54 60 -333 7 c-183 4 -334 8 -335 10 -1 1 -12 51 -23 110 -12 60
-32 137 -44 172 -88 243 -331 462 -586 529 -88 23 -295 29 -381 11z m264 -451
c85 -22 136 -51 198 -115 45 -47 60 -70 79 -128 89 -277 -121 -552 -404 -529
-134 11 -263 105 -325 237 -23 48 -26 68 -26 160 0 101 1 108 35 170 93 172
265 252 443 205z"/>
<path d="M2190 7173 c-37 -31 -246 -291 -415 -516 -65 -87 -122 -154 -126
-150 -4 4 -42 53 -84 108 -92 120 -141 172 -177 191 -41 21 -120 18 -151 -6
-30 -24 -67 -96 -67 -133 0 -31 116 -207 249 -377 152 -195 149 -192 212 -198
108 -9 102 -14 494 507 244 325 306 428 291 485 -10 40 -64 94 -104 106 -59
16 -88 12 -122 -17z"/>
<path d="M3130 6759 c-175 -4 -323 -12 -348 -18 -48 -13 -105 -59 -129 -105
-25 -46 -23 -160 3 -211 28 -55 99 -97 178 -107 107 -14 1469 -21 1755 -9 240
10 266 13 302 33 49 27 85 79 100 144 22 95 -31 208 -117 249 -30 14 -85 19
-313 26 -311 10 -973 9 -1431 -2z"/>
<path d="M2202 5935 c-37 -27 -171 -192 -362 -446 -99 -131 -182 -239 -184
-239 -2 0 -37 44 -77 98 -102 135 -176 208 -221 220 -44 12 -101 1 -130 -25
-26 -23 -57 -90 -58 -124 0 -53 158 -278 354 -501 65 -75 102 -93 160 -77 49
14 153 128 337 370 391 516 429 582 377 658 -34 50 -67 71 -123 77 -37 4 -56
1 -73 -11z"/>
<path d="M2870 5501 c-145 -9 -206 -53 -230 -168 -26 -120 31 -226 136 -252
86 -22 353 -30 1034 -30 662 -1 972 8 1048 28 89 24 131 91 132 206 0 55 -5
80 -23 115 -36 69 -84 88 -243 100 -136 10 -1691 11 -1854 1z"/>
<path d="M2214 4686 c-39 -17 -136 -132 -359 -426 -98 -129 -183 -241 -190
-248 -9 -10 -27 7 -84 82 -95 125 -157 193 -192 211 -91 47 -219 -26 -219
-125 0 -59 103 -212 306 -455 148 -178 187 -183 317 -45 75 79 436 553 537
705 62 93 93 165 84 200 -12 48 -101 116 -151 115 -10 -1 -32 -7 -49 -14z"/>
<path d="M2754 4230 c-93 -47 -119 -90 -119 -195 1 -91 1 -93 70 -167 l51 -55
829 -6 c822 -6 1203 1 1280 24 171 49 174 343 4 401 -24 8 -318 13 -1054 15
-1014 4 -1020 4 -1061 -17z"/>
<path d="M5417 3689 c-150 -22 -382 -93 -532 -163 -439 -206 -803 -618 -964
-1091 -64 -189 -75 -276 -76 -590 0 -248 2 -279 23 -375 86 -381 249 -671 533
-945 112 -109 174 -158 294 -238 408 -269 927 -353 1439 -232 355 83 734 324
977 621 188 230 347 561 391 814 9 50 13 172 13 365 -1 389 -17 475 -140 747
-81 181 -160 302 -310 477 -162 190 -326 315 -558 426 -238 114 -388 159 -612
185 -105 12 -394 11 -478 -1z m413 -444 c344 -40 617 -178 865 -437 189 -197
315 -433 360 -678 24 -127 25 -417 2 -546 -28 -158 -106 -351 -194 -486 -48
-72 -162 -206 -239 -279 -174 -165 -417 -291 -656 -339 -558 -114 -1130 120
-1444 591 -142 212 -215 422 -237 672 -10 119 -9 158 6 270 39 311 170 585
387 811 186 194 406 321 677 391 174 45 288 52 473 30z"/>
<path d="M6275 2646 c-54 -25 -113 -95 -465 -561 -204 -269 -314 -410 -330
-420 -6 -4 -17 0 -23 8 -7 8 -59 77 -117 153 -130 170 -205 253 -247 271 -69
28 -196 11 -246 -35 -46 -41 -75 -139 -63 -207 14 -73 417 -618 553 -746 85
-81 146 -88 250 -29 56 32 133 128 573 716 354 472 424 581 423 664 0 133
-182 242 -308 186z"/>
<path d="M2166 3409 c-27 -23 -280 -349 -502 -647 -8 -11 -27 8 -92 94 -141
190 -203 236 -286 213 -66 -18 -116 -81 -116 -147 0 -48 140 -252 328 -475
129 -153 167 -155 300 -12 79 85 387 488 511 670 44 64 87 139 96 166 16 46
16 51 -2 86 -24 48 -88 83 -154 83 -40 0 -55 -6 -83 -31z"/>
<path d="M2698 2942 c-63 -65 -75 -104 -63 -199 6 -46 14 -63 53 -108 26 -29
56 -57 67 -63 13 -7 206 -13 530 -17 l510 -7 49 106 c44 97 82 166 160 299
l28 47 -640 0 -639 0 -55 -58z"/>
</g>
</svg>
