<?xml version="1.0" standalone="no"?>
<!DOCTYPE svg PUBLIC "-//W3C//DTD SVG 20010904//EN"
 "http://www.w3.org/TR/2001/REC-SVG-20010904/DTD/svg10.dtd">
<svg version="1.0" xmlns="http://www.w3.org/2000/svg"
 width="512px" height="512px" viewBox="0 0 256.000000 256.000000"
 preserveAspectRatio="xMidYMid meet">

<g transform="translate(0.000000,256.000000) scale(0.100000,-0.100000)"
fill="#4EA7B3" stroke="none">
<path d="M186 2379 c-20 -16 -26 -29 -26 -59 0 -30 6 -43 26 -59 25 -20 39
-21 293 -21 l266 0 108 -260 107 -260 0 -365 0 -364 -177 -106 c-98 -58 -188
-115 -200 -125 -32 -28 -31 -83 2 -115 20 -21 34 -25 87 -25 l63 0 -43 -21
c-117 -58 -166 -206 -107 -325 88 -176 342 -178 429 -2 60 121 13 268 -106
327 l-43 21 455 0 455 0 -43 -21 c-52 -26 -109 -90 -122 -138 -56 -201 119
-371 313 -305 196 67 212 350 25 443 l-43 21 143 0 c138 0 144 1 167 25 32 31
34 86 4 114 -12 11 -40 23 -63 26 -23 3 -303 5 -624 3 -320 -2 -582 -1 -582 2
0 3 27 20 59 38 l60 32 558 0 c621 0 593 -3 612 68 20 73 161 796 161 823 0
34 -30 65 -72 73 -17 3 -301 6 -632 6 l-602 0 -22 53 c-13 28 -61 147 -109
262 -52 129 -95 219 -110 233 -24 22 -27 22 -332 22 -297 0 -309 -1 -335 -21z
m1478 -735 c3 -9 6 -24 6 -34 0 -13 11 -19 43 -24 63 -10 68 -15 56 -60 -9
-32 -14 -37 -32 -32 -51 14 -104 17 -130 7 -23 -9 -28 -16 -25 -39 3 -23 15
-33 91 -69 106 -52 130 -82 124 -157 -4 -42 -10 -55 -41 -83 -20 -19 -50 -36
-66 -40 -27 -5 -30 -9 -30 -44 0 -38 -1 -39 -35 -39 -33 0 -35 2 -35 33 0 32
-1 33 -60 45 -32 7 -62 17 -65 22 -3 5 -1 27 5 49 l10 40 35 -15 c19 -8 59
-14 89 -14 44 0 58 4 69 21 27 37 10 59 -78 99 -106 49 -147 100 -131 165 9
37 61 91 98 101 28 8 33 14 30 37 -2 15 -1 31 3 37 10 16 62 12 69 -6z"/>
<path d="M1428 2318 c-36 -21 -38 -21 -58 -3 -19 18 -21 18 -42 -1 -13 -10
-25 -20 -27 -21 -2 -1 6 -14 16 -30 17 -24 18 -31 6 -53 -23 -45 -17 -106 16
-142 27 -30 34 -33 83 -32 30 1 67 8 84 16 50 26 81 30 98 12 9 -8 16 -19 16
-24 0 -19 -51 -68 -89 -85 -46 -20 -47 -24 -26 -65 19 -37 26 -37 83 -4 l44
26 21 -20 c18 -19 22 -19 43 -5 29 19 30 30 3 59 -20 21 -20 24 -5 46 9 13 16
43 16 70 0 39 -6 54 -31 83 -27 30 -37 35 -77 35 -25 0 -74 -10 -109 -22 -60
-20 -65 -20 -81 -5 -15 16 -15 19 4 44 11 16 39 37 62 48 23 11 41 22 42 25 0
10 -40 70 -47 70 -5 0 -25 -10 -45 -22z"/>
<path d="M2235 2280 c-16 -17 -20 -18 -38 -5 -12 8 -43 15 -70 15 -42 0 -54
-5 -83 -34 -41 -41 -44 -78 -13 -161 25 -68 22 -99 -9 -103 -30 -5 -58 21 -88
81 l-25 48 -30 -18 c-43 -25 -45 -36 -16 -86 l26 -44 -21 -20 c-19 -20 -19
-22 -3 -47 21 -31 32 -32 60 -6 20 19 24 19 51 5 56 -29 134 -12 168 37 22 31
20 79 -6 160 -20 63 -21 69 -6 85 16 15 19 15 42 -1 14 -9 36 -34 48 -56 26
-45 28 -46 68 -25 27 14 28 18 19 43 -6 15 -18 35 -27 45 -16 18 -15 20 6 37
22 18 22 20 6 45 -20 30 -35 32 -59 5z"/>
</g>
</svg>
