<?xml version="1.0" standalone="no"?>
<!DOCTYPE svg PUBLIC "-//W3C//DTD SVG 20010904//EN"
 "http://www.w3.org/TR/2001/REC-SVG-20010904/DTD/svg10.dtd">
<svg version="1.0" xmlns="http://www.w3.org/2000/svg"
 width="512px" height="512px" viewBox="0 0 862.000000 980.000000"
 preserveAspectRatio="xMidYMid meet">

<g transform="translate(0.000000,980.000000) scale(0.100000,-0.100000)"
fill="#4EA7B3" stroke="none">
<path d="M709 9785 c-288 -58 -525 -253 -637 -527 -67 -162 -62 204 -62 -4391
l0 -4172 45 -110 c54 -131 91 -195 165 -283 106 -127 272 -230 440 -275 l85
-22 3580 0 3580 0 85 28 c281 94 493 302 579 567 49 151 47 -18 41 4370 l-5
4115 -28 90 c-74 237 -224 419 -437 530 -47 24 -119 54 -160 67 l-75 23 -3565
2 c-2918 1 -3577 -1 -3631 -12z m7121 -646 c56 -25 86 -53 113 -104 l22 -40 3
-4075 c2 -3047 0 -4086 -9 -4117 -16 -58 -68 -116 -128 -142 l-50 -21 -3483 2
-3483 3 -42 22 c-51 27 -96 82 -112 132 -16 55 -16 8147 0 8202 17 55 65 108
123 135 l51 24 3475 0 3475 0 45 -21z"/>
<path d="M1414 8329 c-83 -24 -180 -123 -204 -207 -16 -59 -12 -146 10 -205
24 -65 91 -136 158 -169 l47 -23 2205 0 2205 0 46 23 c59 29 123 93 151 151
32 64 32 195 1 262 -25 56 -87 120 -145 151 l-43 23 -2200 2 c-1306 1 -2213
-2 -2231 -8z"/>
<path d="M1504 7226 c-93 -23 -176 -93 -217 -185 -33 -71 -30 -188 6 -263 30
-62 83 -115 149 -150 l43 -23 1650 -3 c1888 -3 1707 -12 1811 92 70 71 94 126
94 222 0 158 -100 279 -258 313 -80 17 -3208 14 -3278 -3z"/>
<path d="M1413 5972 c-263 -92 -287 -456 -39 -586 l60 -31 1220 0 1221 0 49
24 c66 33 122 91 154 160 22 45 27 71 27 131 0 132 -70 239 -195 298 -32 16
-140 17 -1240 19 -1137 2 -1208 2 -1257 -15z"/>
<path d="M6860 5781 c-56 -18 -91 -45 -213 -168 -209 -211 -216 -187 162 -564
310 -311 323 -321 402 -299 52 14 210 179 246 256 25 53 28 70 28 164 0 158
-14 182 -228 398 -95 96 -190 183 -212 194 -43 22 -144 33 -185 19z"/>
<path d="M6155 5106 c-16 -8 -560 -545 -1209 -1194 l-1178 -1179 -34 -109
c-18 -60 -76 -246 -128 -413 -53 -167 -96 -318 -96 -335 0 -64 63 -126 128
-126 16 0 215 58 443 129 l413 130 1183 1183 c854 854 1186 1192 1194 1216 25
77 20 84 -289 396 -158 158 -301 294 -319 302 -40 17 -69 17 -108 0z"/>
<path d="M1403 4744 c-57 -21 -138 -96 -171 -158 -22 -44 -26 -63 -26 -141 -1
-106 20 -158 87 -226 49 -49 94 -73 165 -88 70 -15 1436 -15 1513 -1 110 21
190 84 235 184 69 153 10 330 -138 412 l-53 29 -785 2 c-678 1 -791 0 -827
-13z"/>
</g>
</svg>
