<?xml version="1.0" standalone="no"?>
<!DOCTYPE svg PUBLIC "-//W3C//DTD SVG 20010904//EN"
 "http://www.w3.org/TR/2001/REC-SVG-20010904/DTD/svg10.dtd">
<svg version="1.0" xmlns="http://www.w3.org/2000/svg"
 width="512px" height="512px" viewBox="0 0 512.000000 512.000000"
 preserveAspectRatio="xMidYMid meet">

<g transform="translate(0.000000,512.000000) scale(0.100000,-0.100000)"
fill="#4EA7B3" stroke="none">
<path d="M1012 5090 c-62 -14 -162 -73 -205 -119 -23 -25 -123 -156 -222 -291
-217 -298 -278 -381 -389 -530 -47 -63 -103 -151 -125 -195 -64 -130 -71 -176
-71 -461 0 -297 5 -320 85 -401 103 -102 251 -111 375 -23 l29 20 3 358 c6
507 -24 428 413 1097 32 50 125 192 207 317 81 125 148 230 148 233 0 8 -211
4 -248 -5z"/>
<path d="M1418 4997 c-36 -56 -158 -244 -271 -417 -382 -585 -408 -628 -432
-698 -40 -112 -46 -187 -43 -511 l3 -305 47 -24 c68 -35 157 -40 228 -13 30
12 67 32 82 45 l26 24 5 353 c6 452 8 466 147 759 43 91 118 251 168 355 49
105 126 266 171 359 45 92 81 170 81 172 0 2 -33 4 -72 4 l-73 0 -67 -103z"/>
<path d="M1826 5075 c-9 -13 -16 -26 -16 -29 0 -2 -34 -75 -76 -162 -328 -687
-436 -919 -455 -984 -22 -71 -23 -95 -27 -456 l-3 -382 48 -23 c89 -43 197
-36 281 18 l42 27 0 346 c0 353 9 470 46 600 17 62 324 1011 341 1058 4 9 -16
12 -80 12 -79 0 -86 -2 -101 -25z"/>
<path d="M2094 4758 c-62 -189 -138 -422 -169 -518 -114 -346 -125 -420 -125
-854 l0 -306 38 -24 c87 -56 187 -60 285 -12 l57 27 0 377 c0 366 1 394 50
972 27 327 52 614 55 638 l6 42 -43 0 -43 0 -111 -342z"/>
<path d="M2475 5088 c-2 -7 -11 -101 -20 -208 -9 -107 -34 -402 -56 -655 -36
-420 -39 -489 -39 -797 l0 -337 33 -25 c99 -76 245 -73 341 5 l37 31 -3 417
c-3 397 -6 441 -51 966 -26 303 -50 565 -53 583 l-5 32 -90 0 c-63 0 -91 -4
-94 -12z"/>
<path d="M2850 5083 c0 -10 9 -119 20 -243 89 -1018 90 -1036 90 -1418 l0
-363 48 -21 c97 -44 218 -31 291 30 l33 27 -1 345 c-1 266 -5 367 -17 440 -15
87 -64 245 -308 995 l-72 220 -42 3 c-35 3 -42 0 -42 -15z"/>
<path d="M3130 5094 c0 -7 221 -689 292 -899 85 -255 90 -291 97 -735 l6 -395
43 -24 c84 -46 197 -40 285 16 l38 24 -3 367 c-4 364 -4 368 -30 452 -15 47
-77 191 -138 320 -62 129 -135 282 -162 340 -28 58 -63 132 -78 165 -15 33
-62 131 -104 218 l-75 157 -86 0 c-47 0 -85 -3 -85 -6z"/>
<path d="M3510 5094 c0 -5 72 -157 300 -634 271 -566 270 -561 270 -1086 l0
-301 53 -29 c45 -25 62 -29 132 -29 67 0 88 5 132 28 28 14 54 31 58 37 3 5 6
160 5 344 -1 370 -4 398 -65 521 -19 39 -58 106 -87 150 -30 44 -159 242 -287
440 -129 198 -265 406 -303 463 l-68 102 -70 0 c-39 0 -70 -2 -70 -6z"/>
<path d="M3880 5094 c0 -4 15 -30 34 -58 18 -28 102 -157 186 -286 84 -129
172 -264 195 -300 253 -388 265 -407 305 -511 41 -109 50 -202 50 -545 l0
-322 62 -31 c113 -57 233 -37 324 54 82 82 86 105 82 418 -4 256 -4 264 -32
342 -32 93 -49 122 -131 229 -33 43 -86 113 -119 155 -32 42 -82 105 -110 141
-29 36 -141 178 -248 315 -108 138 -209 263 -224 279 -74 73 -200 125 -306
126 -38 0 -68 -3 -68 -6z"/>
<path d="M540 2928 c-14 -12 -54 -35 -90 -52 -57 -27 -76 -30 -152 -31 l-86 0
-6 -35 c-10 -61 -6 -2300 4 -2372 14 -96 43 -166 97 -233 59 -72 137 -127 223
-157 l65 -23 1980 0 c1914 0 1982 1 2035 19 85 29 123 51 183 106 59 54 106
126 134 207 16 44 18 148 21 1238 1 655 0 1204 -3 1220 l-5 30 -102 0 c-92 0
-110 3 -163 28 -32 15 -73 39 -91 52 l-31 24 -41 -30 c-139 -102 -358 -101
-491 2 -32 26 -44 24 -93 -11 -65 -47 -165 -74 -251 -67 -92 7 -129 18 -202
63 -57 34 -61 35 -85 20 -64 -39 -119 -64 -169 -76 -105 -25 -251 5 -336 69
l-39 29 -51 -34 c-141 -96 -329 -96 -470 0 l-51 34 -39 -29 c-85 -64 -231 -94
-336 -69 -50 12 -105 37 -169 76 -24 15 -28 14 -85 -20 -73 -45 -110 -56 -202
-63 -86 -7 -186 20 -251 67 -49 35 -61 37 -93 11 -71 -55 -180 -86 -273 -78
-72 6 -166 37 -210 70 -48 36 -49 36 -76 15z m1631 -336 c156 -43 270 -153
326 -314 17 -49 18 -93 18 -563 0 -470 -1 -514 -18 -563 -57 -161 -168 -269
-326 -316 -82 -24 -1020 -24 -1102 0 -158 47 -269 155 -326 316 -17 49 -18 93
-18 558 0 551 0 555 59 659 38 69 117 148 182 183 102 55 118 57 649 57 446 1
496 -1 556 -17z m1944 4 c127 -34 252 -135 305 -248 50 -105 51 -132 48 -983
-3 -743 -4 -793 -22 -839 -58 -150 -162 -253 -306 -304 -60 -20 -644 -30 -752
-12 -127 22 -237 95 -311 208 -80 122 -77 85 -77 986 0 886 -1 868 66 976 42
68 58 87 109 126 57 44 112 73 170 89 71 19 698 21 770 1z"/>
<path d="M2113 2083 c-13 -2 -23 -8 -23 -12 0 -5 18 -64 40 -132 21 -68 38
-125 36 -127 -2 -1 -18 15 -35 36 -17 22 -67 72 -110 111 l-80 72 -39 -10 -38
-11 50 -180 51 -181 29 6 c16 3 31 7 34 9 5 5 -56 221 -70 249 -5 9 -7 17 -6
17 2 0 55 -50 117 -110 107 -104 116 -111 145 -104 17 3 34 9 37 13 9 9 -94
361 -106 360 -5 -1 -20 -4 -32 -6z"/>
<path d="M1695 1963 c-49 -13 -93 -28 -97 -31 -6 -6 86 -350 97 -360 2 -2 50
10 107 26 82 23 104 33 106 48 5 40 -10 45 -78 24 -36 -11 -70 -20 -76 -20 -9
0 -34 69 -34 93 0 3 30 13 66 23 62 17 65 18 59 43 -4 14 -8 28 -10 29 -2 2
-28 -3 -58 -12 -30 -9 -60 -16 -65 -16 -10 0 -32 52 -32 75 0 6 32 19 71 29
53 14 69 22 65 33 -4 8 -6 21 -6 29 0 18 -8 17 -115 -13z"/>
<path d="M1410 1881 c-81 -19 -115 -36 -112 -56 5 -25 93 -328 98 -337 7 -11
64 13 64 27 0 7 -7 32 -15 55 -21 60 -20 65 23 79 69 21 102 63 102 130 0 79
-69 122 -160 102z m70 -71 c28 -28 25 -64 -6 -89 -50 -39 -71 -26 -89 57 -6
28 -3 33 17 41 36 15 56 13 78 -9z"/>
<path d="M1070 1789 c-87 -26 -138 -105 -127 -199 14 -115 78 -181 177 -182
96 0 180 78 180 167 0 45 -27 128 -51 159 -39 50 -115 73 -179 55z m95 -81
c36 -28 55 -76 55 -138 0 -42 -5 -55 -26 -75 -38 -35 -92 -34 -126 3 -43 46
-52 74 -49 155 2 67 89 100 146 55z"/>
<path d="M3160 1453 c-59 -53 -48 -153 20 -188 52 -27 122 -13 152 29 18 26
26 78 17 111 -21 75 -128 102 -189 48z"/>
</g>
</svg>
